<svg xmlns="http://www.w3.org/2000/svg" width="620" height="360" viewBox="0 0 620 360">
  <!-- Excel-style spreadsheet -->
  <!-- Window title bar (Excel green) -->
  <rect x="0" y="0" width="620" height="28" rx="4" fill="#217346"/>
  <text x="310" y="18" font-family="Arial, sans-serif" font-size="11" font-weight="bold"
        fill="white" text-anchor="middle">Microsoft Excel – Vero_Aineisto_2025.xlsx</text>
  <rect x="594" y="7" width="18" height="14" rx="2" fill="#cc333388"/>
  <text x="603" y="18" font-family="Arial, sans-serif" font-size="10" fill="white" text-anchor="middle">✕</text>
  <!-- Tab bar -->
  <rect x="0" y="28" width="620" height="20" fill="#f0f0f0" stroke="#c0c0c0" stroke-width="0.5"/>
  <rect x="4" y="30" width="80" height="16" rx="3" fill="white" stroke="#217346" stroke-width="1.5"/>
  <text x="44" y="42" font-family="Arial, sans-serif" font-size="9" font-weight="bold" fill="#217346" text-anchor="middle">VeroAineisto</text>
  <rect x="88" y="30" width="70" height="16" rx="3" fill="#e0e0e0" stroke="#c0c0c0" stroke-width="0.5"/>
  <text x="123" y="42" font-family="Arial, sans-serif" font-size="9" fill="#555" text-anchor="middle">Lisätiedot</text>
  <!-- Spreadsheet grid area -->
  <rect x="0" y="48" width="620" height="312" fill="white"/>
  <!-- Column letter header row -->
  <rect x="0" y="48" width="30" height="20" fill="#f2f2f2" stroke="#d0d0d0" stroke-width="0.5"/>
  <!-- Column headers A-L -->
  <rect x="30" y="48" width="50" height="20" fill="#f2f2f2" stroke="#d0d0d0" stroke-width="0.5"/>
  <text x="55" y="62" font-family="Arial, sans-serif" font-size="9" fill="#555" text-anchor="middle">A</text>
  <rect x="80" y="48" width="100" height="20" fill="#f2f2f2" stroke="#d0d0d0" stroke-width="0.5"/>
  <text x="130" y="62" font-family="Arial, sans-serif" font-size="9" fill="#555" text-anchor="middle">B</text>
  <rect x="180" y="48" width="80" height="20" fill="#f2f2f2" stroke="#d0d0d0" stroke-width="0.5"/>
  <text x="220" y="62" font-family="Arial, sans-serif" font-size="9" fill="#555" text-anchor="middle">C</text>
  <rect x="260" y="48" width="80" height="20" fill="#f2f2f2" stroke="#d0d0d0" stroke-width="0.5"/>
  <text x="300" y="62" font-family="Arial, sans-serif" font-size="9" fill="#555" text-anchor="middle">D</text>
  <rect x="340" y="48" width="80" height="20" fill="#f2f2f2" stroke="#d0d0d0" stroke-width="0.5"/>
  <text x="380" y="62" font-family="Arial, sans-serif" font-size="9" fill="#555" text-anchor="middle">E</text>
  <rect x="420" y="48" width="90" height="20" fill="#f2f2f2" stroke="#d0d0d0" stroke-width="0.5"/>
  <text x="465" y="62" font-family="Arial, sans-serif" font-size="9" fill="#555" text-anchor="middle">F</text>
  <rect x="510" y="48" width="110" height="20" fill="#f2f2f2" stroke="#d0d0d0" stroke-width="0.5"/>
  <text x="565" y="62" font-family="Arial, sans-serif" font-size="9" fill="#555" text-anchor="middle">G</text>
  <!-- Header row 1 (bold, green background) -->
  <rect x="0" y="68" width="30" height="22" fill="#f2f2f2" stroke="#d0d0d0" stroke-width="0.5"/>
  <text x="15" y="83" font-family="Arial, sans-serif" font-size="9" fill="#555" text-anchor="middle">1</text>
  <rect x="30" y="68" width="50" height="22" fill="#c6efce" stroke="#d0d0d0" stroke-width="0.5"/>
  <text x="55" y="83" font-family="Arial, sans-serif" font-size="9" font-weight="bold" fill="#276221" text-anchor="middle">Kiint.tunnus</text>
  <rect x="80" y="68" width="100" height="22" fill="#c6efce" stroke="#d0d0d0" stroke-width="0.5"/>
  <text x="130" y="83" font-family="Arial, sans-serif" font-size="9" font-weight="bold" fill="#276221" text-anchor="middle">Omistaja</text>
  <rect x="180" y="68" width="80" height="22" fill="#c6efce" stroke="#d0d0d0" stroke-width="0.5"/>
  <text x="220" y="83" font-family="Arial, sans-serif" font-size="9" font-weight="bold" fill="#276221" text-anchor="middle">Kaupunki</text>
  <rect x="260" y="68" width="80" height="22" fill="#c6efce" stroke="#d0d0d0" stroke-width="0.5"/>
  <text x="300" y="83" font-family="Arial, sans-serif" font-size="9" font-weight="bold" fill="#276221" text-anchor="middle">Pinta-ala</text>
  <rect x="340" y="68" width="80" height="22" fill="#c6efce" stroke="#d0d0d0" stroke-width="0.5"/>
  <text x="380" y="83" font-family="Arial, sans-serif" font-size="9" font-weight="bold" fill="#276221" text-anchor="middle">Veroprosentti</text>
  <rect x="420" y="68" width="90" height="22" fill="#c6efce" stroke="#d0d0d0" stroke-width="0.5"/>
  <text x="465" y="83" font-family="Arial, sans-serif" font-size="9" font-weight="bold" fill="#276221" text-anchor="middle">Kiinteistövero</text>
  <rect x="510" y="68" width="110" height="22" fill="#c6efce" stroke="#d0d0d0" stroke-width="0.5"/>
  <text x="565" y="83" font-family="Arial, sans-serif" font-size="9" font-weight="bold" fill="#276221" text-anchor="middle">Rakennustyyppi</text>
  <!-- Data rows -->
  <!-- Row 2 -->
  <rect x="0" y="90" width="30" height="20" fill="#f2f2f2" stroke="#d0d0d0" stroke-width="0.5"/>
  <text x="15" y="104" font-family="Arial, sans-serif" font-size="9" fill="#555" text-anchor="middle">2</text>
  <rect x="30" y="90" width="50" height="20" fill="white" stroke="#d0d0d0" stroke-width="0.5"/>
  <text x="55" y="104" font-family="Arial, sans-serif" font-size="8" fill="#333" text-anchor="middle">091-001-0001</text>
  <rect x="80" y="90" width="100" height="20" fill="white" stroke="#d0d0d0" stroke-width="0.5"/>
  <text x="130" y="104" font-family="Arial, sans-serif" font-size="8" fill="#333" text-anchor="middle">Omistaja1</text>
  <rect x="180" y="90" width="80" height="20" fill="white" stroke="#d0d0d0" stroke-width="0.5"/>
  <text x="220" y="104" font-family="Arial, sans-serif" font-size="8" fill="#333" text-anchor="middle">Helsinki</text>
  <rect x="260" y="90" width="80" height="20" fill="white" stroke="#d0d0d0" stroke-width="0.5"/>
  <text x="300" y="104" font-family="Arial, sans-serif" font-size="8" fill="#333" text-anchor="middle">1250</text>
  <rect x="340" y="90" width="80" height="20" fill="white" stroke="#d0d0d0" stroke-width="0.5"/>
  <text x="380" y="104" font-family="Arial, sans-serif" font-size="8" fill="#333" text-anchor="middle">1.0 %</text>
  <rect x="420" y="90" width="90" height="20" fill="white" stroke="#d0d0d0" stroke-width="0.5"/>
  <text x="465" y="104" font-family="Arial, sans-serif" font-size="8" fill="#333" text-anchor="middle">1 250,00 €</text>
  <rect x="510" y="90" width="110" height="20" fill="white" stroke="#d0d0d0" stroke-width="0.5"/>
  <text x="565" y="104" font-family="Arial, sans-serif" font-size="8" fill="#333" text-anchor="middle">Asuinkerrostalo</text>
  <!-- Row 3 -->
  <rect x="0" y="110" width="30" height="20" fill="#f2f2f2" stroke="#d0d0d0" stroke-width="0.5"/>
  <text x="15" y="124" font-family="Arial, sans-serif" font-size="9" fill="#555" text-anchor="middle">3</text>
  <rect x="30" y="110" width="50" height="20" fill="#f2f8ff" stroke="#d0d0d0" stroke-width="0.5"/>
  <text x="55" y="124" font-family="Arial, sans-serif" font-size="8" fill="#333" text-anchor="middle">091-001-0002</text>
  <rect x="80" y="110" width="100" height="20" fill="#f2f8ff" stroke="#d0d0d0" stroke-width="0.5"/>
  <text x="130" y="124" font-family="Arial, sans-serif" font-size="8" fill="#333" text-anchor="middle">Omistaja2</text>
  <rect x="180" y="110" width="80" height="20" fill="#f2f8ff" stroke="#d0d0d0" stroke-width="0.5"/>
  <text x="220" y="124" font-family="Arial, sans-serif" font-size="8" fill="#333" text-anchor="middle">Helsinki</text>
  <rect x="260" y="110" width="80" height="20" fill="#f2f8ff" stroke="#d0d0d0" stroke-width="0.5"/>
  <text x="300" y="124" font-family="Arial, sans-serif" font-size="8" fill="#333" text-anchor="middle">890</text>
  <rect x="340" y="110" width="80" height="20" fill="#f2f8ff" stroke="#d0d0d0" stroke-width="0.5"/>
  <text x="380" y="124" font-family="Arial, sans-serif" font-size="8" fill="#333" text-anchor="middle">1.0 %</text>
  <rect x="420" y="110" width="90" height="20" fill="#f2f8ff" stroke="#d0d0d0" stroke-width="0.5"/>
  <text x="465" y="124" font-family="Arial, sans-serif" font-size="8" fill="#333" text-anchor="middle">890,00 €</text>
  <rect x="510" y="110" width="110" height="20" fill="#f2f8ff" stroke="#d0d0d0" stroke-width="0.5"/>
  <text x="565" y="124" font-family="Arial, sans-serif" font-size="8" fill="#333" text-anchor="middle">Omakotitalo</text>
  <!-- Row 4 - missing value highlighted yellow -->
  <rect x="0" y="130" width="30" height="20" fill="#f2f2f2" stroke="#d0d0d0" stroke-width="0.5"/>
  <text x="15" y="144" font-family="Arial, sans-serif" font-size="9" fill="#555" text-anchor="middle">4</text>
  <rect x="30" y="130" width="50" height="20" fill="white" stroke="#d0d0d0" stroke-width="0.5"/>
  <text x="55" y="144" font-family="Arial, sans-serif" font-size="8" fill="#333" text-anchor="middle">091-002-0001</text>
  <rect x="80" y="130" width="100" height="20" fill="white" stroke="#d0d0d0" stroke-width="0.5"/>
  <text x="130" y="144" font-family="Arial, sans-serif" font-size="8" fill="#333" text-anchor="middle">Omistaja3</text>
  <rect x="180" y="130" width="80" height="20" fill="white" stroke="#d0d0d0" stroke-width="0.5"/>
  <text x="220" y="144" font-family="Arial, sans-serif" font-size="8" fill="#333" text-anchor="middle">Helsinki</text>
  <rect x="260" y="130" width="80" height="20" fill="white" stroke="#d0d0d0" stroke-width="0.5"/>
  <text x="300" y="144" font-family="Arial, sans-serif" font-size="8" fill="#333" text-anchor="middle">3450</text>
  <rect x="340" y="130" width="80" height="20" fill="#ffeb9c" stroke="#d0d0d0" stroke-width="0.5"/>
  <text x="380" y="144" font-family="Arial, sans-serif" font-size="8" fill="#9c6500" text-anchor="middle">PUUTTUU</text>
  <rect x="420" y="130" width="90" height="20" fill="#ffeb9c" stroke="#d0d0d0" stroke-width="0.5"/>
  <text x="465" y="144" font-family="Arial, sans-serif" font-size="8" fill="#9c6500" text-anchor="middle">PUUTTUU</text>
  <rect x="510" y="130" width="110" height="20" fill="white" stroke="#d0d0d0" stroke-width="0.5"/>
  <text x="565" y="144" font-family="Arial, sans-serif" font-size="8" fill="#333" text-anchor="middle">Kerrostalo</text>
  <!-- Row 5 -->
  <rect x="0" y="150" width="30" height="20" fill="#f2f2f2" stroke="#d0d0d0" stroke-width="0.5"/>
  <text x="15" y="164" font-family="Arial, sans-serif" font-size="9" fill="#555" text-anchor="middle">5</text>
  <rect x="30" y="150" width="50" height="20" fill="#f2f8ff" stroke="#d0d0d0" stroke-width="0.5"/>
  <text x="55" y="164" font-family="Arial, sans-serif" font-size="8" fill="#333" text-anchor="middle">091-003-0001</text>
  <rect x="80" y="150" width="100" height="20" fill="#f2f8ff" stroke="#d0d0d0" stroke-width="0.5"/>
  <text x="130" y="164" font-family="Arial, sans-serif" font-size="8" fill="#333" text-anchor="middle">Omistaja4</text>
  <rect x="180" y="150" width="80" height="20" fill="#f2f8ff" stroke="#d0d0d0" stroke-width="0.5"/>
  <text x="220" y="164" font-family="Arial, sans-serif" font-size="8" fill="#333" text-anchor="middle">Helsinki</text>
  <rect x="260" y="150" width="80" height="20" fill="#f2f8ff" stroke="#d0d0d0" stroke-width="0.5"/>
  <text x="300" y="164" font-family="Arial, sans-serif" font-size="8" fill="#333" text-anchor="middle">740</text>
  <rect x="340" y="150" width="80" height="20" fill="#f2f8ff" stroke="#d0d0d0" stroke-width="0.5"/>
  <text x="380" y="164" font-family="Arial, sans-serif" font-size="8" fill="#333" text-anchor="middle">1.0 %</text>
  <rect x="420" y="150" width="90" height="20" fill="#f2f8ff" stroke="#d0d0d0" stroke-width="0.5"/>
  <text x="465" y="164" font-family="Arial, sans-serif" font-size="8" fill="#333" text-anchor="middle">740,00 €</text>
  <rect x="510" y="150" width="110" height="20" fill="#f2f8ff" stroke="#d0d0d0" stroke-width="0.5"/>
  <text x="565" y="164" font-family="Arial, sans-serif" font-size="8" fill="#333" text-anchor="middle">Omakotitalo</text>
  <!-- Empty rows with dotted appearance -->
  <rect x="0" y="170" width="620" height="150" fill="white" stroke="#e8e8e8" stroke-width="0.5"/>
  <!-- Horizontal grid lines for empty rows -->
  <line x1="0" y1="190" x2="620" y2="190" stroke="#e0e0e0" stroke-width="0.5"/>
  <line x1="0" y1="210" x2="620" y2="210" stroke="#e0e0e0" stroke-width="0.5"/>
  <line x1="0" y1="230" x2="620" y2="230" stroke="#e0e0e0" stroke-width="0.5"/>
  <line x1="0" y1="250" x2="620" y2="250" stroke="#e0e0e0" stroke-width="0.5"/>
  <line x1="0" y1="270" x2="620" y2="270" stroke="#e0e0e0" stroke-width="0.5"/>
  <line x1="0" y1="290" x2="620" y2="290" stroke="#e0e0e0" stroke-width="0.5"/>
  <line x1="0" y1="310" x2="620" y2="310" stroke="#e0e0e0" stroke-width="0.5"/>
  <!-- Row numbers for empty rows -->
  <rect x="0" y="170" width="30" height="20" fill="#f2f2f2" stroke="#d0d0d0" stroke-width="0.5"/>
  <text x="15" y="184" font-family="Arial, sans-serif" font-size="9" fill="#555" text-anchor="middle">6</text>
  <rect x="0" y="190" width="30" height="20" fill="#f2f2f2" stroke="#d0d0d0" stroke-width="0.5"/>
  <text x="15" y="204" font-family="Arial, sans-serif" font-size="9" fill="#555" text-anchor="middle">7</text>
  <!-- Legend for color coding -->
  <rect x="0" y="320" width="620" height="40" fill="#f5f5f5" stroke="#c0c0c0" stroke-width="0.5"/>
  <rect x="10" y="330" width="14" height="12" fill="#c6efce" stroke="#276221" stroke-width="0.5"/>
  <text x="28" y="340" font-family="Arial, sans-serif" font-size="9" fill="#333">Otsikkorivi (pakolliset kentät)</text>
  <rect x="170" y="330" width="14" height="12" fill="#ffeb9c" stroke="#d0d0d0" stroke-width="0.5"/>
  <text x="188" y="340" font-family="Arial, sans-serif" font-size="9" fill="#9c6500">Puuttuva arvo – tarkista</text>
  <rect x="330" y="330" width="14" height="12" fill="#f2f8ff" stroke="#d0d0d0" stroke-width="0.5"/>
  <text x="348" y="340" font-family="Arial, sans-serif" font-size="9" fill="#333">Vuorotteleva rivi</text>
</svg>
