<svg xmlns="http://www.w3.org/2000/svg" viewBox="0 0 900 580" width="900" height="580">
  <defs>
    <style>
      text { font-family: "Segoe UI", Arial, sans-serif; }
      .lbl    { font-size: 10.5px; fill: #343a40; }
      .small  { font-size: 9px;    fill: #6b7280; }
      .hdr    { font-size: 12px;   fill: white; font-weight: bold; }
      .btn    { font-size: 10px;   fill: white; }
      .result { font-size: 18px;   fill: #1e3a5f; font-weight: bold; }
      .range  { font-size: 8.5px;  fill: #495057; }
      .colhdr { font-size: 8px;    fill: white; font-weight: bold; }
      .cell   { font-size: 9px;    fill: #212529; }
      .grptit { font-size: 11px;   fill: #495057; font-weight: bold; }
      .combo  { font-size: 9.5px;  fill: #343a40; }
      .chklbl { font-size: 9px;    fill: #212529; }
      .anno   { font-size: 8px;    fill: #2563eb; font-style: italic; }
      .badge  { font-size: 8.5px;  fill: #374151; font-weight: bold; }
      .null   { font-size: 9px;    fill: #9ca3af; }
    </style>
  </defs>

  <!-- ── Dialog background ── -->
  <rect width="900" height="580" fill="#f0f2f5" rx="6"/>

  <!-- ── Title bar ── -->
  <rect x="0" y="0" width="900" height="34" fill="#343a40" rx="6"/>
  <rect x="0" y="28" width="900" height="6" fill="#343a40"/>
  <text x="12" y="22" class="hdr">Kiinteistöveroanalyysi [BETA]</text>
  <circle cx="877" cy="17" r="10" fill="#e5e7eb"/>
  <text x="877" y="22" class="badge" text-anchor="middle">!</text>

  <!-- ── Tool selector bar ── -->
  <rect x="8" y="42" width="876" height="30" fill="#f8f9fa" rx="2" stroke="#e9ecef" stroke-width="1"/>
  <text x="16" y="61" class="lbl">Laskentatyökalu:</text>
  <rect x="132" y="46" width="706" height="22" fill="white" rx="3" stroke="#ced4da" stroke-width="1"/>
  <text x="142" y="61" class="combo">Rakennus – Veroarvio (vertaileva)</text>
  <text x="824" y="61" class="small">▼</text>

  <!-- ── GroupBox ── -->
  <rect x="8" y="80" width="876" height="492" fill="white" rx="4" stroke="#dee2e6" stroke-width="1"/>
  <rect x="8" y="80" width="876" height="22" fill="#f8f9fa" rx="4" stroke="#dee2e6" stroke-width="1"/>
  <rect x="8" y="94" width="876" height="8" fill="#f8f9fa"/>
  <text x="24" y="96" class="grptit">Rakennus – Veroarvio (vertaileva)</text>

  <!-- ══════════════════════════════════════════════ -->
  <!-- LEFT PANEL  x: 14 … 285 -->
  <!-- ══════════════════════════════════════════════ -->

  <!-- Rakennukset-taso -->
  <text x="18" y="122" class="lbl">Rakennukset-taso:</text>
  <rect x="128" y="109" width="154" height="22" fill="white" rx="3" stroke="#ced4da" stroke-width="1"/>
  <text x="134" y="124" class="combo">Rakennukset_Yhdistetty…</text>
  <text x="270" y="124" class="small">▼</text>

  <!-- Pick point button -->
  <rect x="14" y="137" width="268" height="26" fill="#495057" rx="4"/>
  <text x="148" y="154" class="btn" text-anchor="middle">📍  Valitse sijainti kartalta</text>

  <!-- Koordinaatit -->
  <text x="18" y="182" class="lbl">Koordinaatit:</text>
  <text x="128" y="182" class="small">X: 6 812 403   Y: 458 221</text>

  <!-- Kerrosala -->
  <text x="18" y="204" class="lbl">Kerrosala (m²):</text>
  <rect x="128" y="191" width="154" height="22" fill="white" rx="3" stroke="#ced4da" stroke-width="1"/>
  <text x="205" y="206" class="combo" text-anchor="middle">250</text>

  <!-- Rakennustyyppi label -->
  <text x="18" y="228" class="lbl">Rakennustyyppi:</text>
  <!-- Toggle link -->
  <text x="128" y="228" class="anno" fill="#2563eb">Valitse kaikki</text>

  <!-- Listwidget -->
  <rect x="128" y="232" width="154" height="108" fill="white" rx="2" stroke="#ced4da" stroke-width="1"/>
  <!-- (kaikki) -->
  <rect x="134" y="238" width="10" height="10" fill="#2563eb" rx="2"/>
  <text x="149" y="248" class="chklbl">(kaikki)</text>
  <!-- row 2 checked -->
  <rect x="134" y="252" width="10" height="10" fill="#2563eb" rx="2"/>
  <text x="149" y="262" class="chklbl">039 – Omakotitalo</text>
  <!-- row 3 checked -->
  <rect x="134" y="266" width="10" height="10" fill="#2563eb" rx="2"/>
  <text x="149" y="276" class="chklbl">041 – Rivitalo</text>
  <!-- row 4 unchecked -->
  <rect x="134" y="280" width="10" height="10" fill="white" rx="2" stroke="#9ca3af" stroke-width="1"/>
  <text x="149" y="290" class="chklbl">092 – Liikerakennus</text>
  <!-- row 5 unchecked -->
  <rect x="134" y="294" width="10" height="10" fill="white" rx="2" stroke="#9ca3af" stroke-width="1"/>
  <text x="149" y="304" class="chklbl">199 – Muu asuin</text>
  <!-- row 6 unchecked -->
  <rect x="134" y="308" width="10" height="10" fill="white" rx="2" stroke="#9ca3af" stroke-width="1"/>
  <text x="149" y="318" class="chklbl">699 – Muu teoll.</text>
  <!-- row 7 unchecked -->
  <rect x="134" y="322" width="10" height="10" fill="white" rx="2" stroke="#9ca3af" stroke-width="1"/>
  <text x="149" y="332" class="chklbl">941 – Sauna</text>
  <!-- scrollbar -->
  <rect x="274" y="233" width="6" height="106" fill="#e9ecef" rx="3"/>
  <rect x="274" y="233" width="6" height="28" fill="#9ca3af" rx="3"/>

  <!-- Veroprosentti -->
  <text x="18" y="360" class="lbl">Veroprosentti:</text>
  <rect x="128" y="347" width="154" height="22" fill="white" rx="3" stroke="#ced4da" stroke-width="1"/>
  <text x="134" y="362" class="combo">Vakituinen asunto (0,45 %)</text>
  <text x="270" y="362" class="small">▼</text>

  <!-- Hakusäde -->
  <text x="18" y="386" class="lbl">Hakusäde (m):</text>
  <rect x="128" y="373" width="154" height="22" fill="white" rx="3" stroke="#ced4da" stroke-width="1"/>
  <text x="205" y="388" class="combo" text-anchor="middle">500</text>

  <!-- Laske arvio button -->
  <rect x="128" y="404" width="154" height="30" fill="#2563eb" rx="4"/>
  <text x="205" y="423" class="btn" text-anchor="middle">Laske arvio</text>

  <!-- ══════════════════════════════════════════════ -->
  <!-- RIGHT PANEL  x: 296 … 876 -->
  <!-- ══════════════════════════════════════════════ -->

  <!-- Result label (active) -->
  <rect x="296" y="108" width="572" height="44" fill="#eff6ff" rx="4" stroke="#93c5fd" stroke-width="1"/>
  <text x="582" y="136" class="result" text-anchor="middle">Ka: 1 043,75 €</text>

  <!-- Range label -->
  <rect x="296" y="158" width="572" height="38" fill="#f8f9fa"/>
  <rect x="296" y="158" width="3"   height="38" fill="#ced4da"/>
  <text x="305" y="172" class="range">Laskentakaava: vero/m²-ka 4,1750 € × 250 m² (kerrosala) = 1 043,75 € (arvio)</text>
  <text x="305" y="187" class="range">Vaihteleväli: 782,50 €  –  1 475,00 €  |  Referenssejä: 11 kpl</text>

  <!-- Show on map button -->
  <rect x="296" y="202" width="572" height="26" fill="#495057" rx="4"/>
  <text x="582" y="219" class="btn" text-anchor="middle">Näytä referenssit kartalla</text>

  <!-- Table header (7 columns) -->
  <rect x="296" y="234" width="572" height="20" fill="#495057"/>
  <line x1="390" y1="234" x2="390" y2="254" stroke="#343a40" stroke-width="1"/>
  <line x1="454" y1="234" x2="454" y2="254" stroke="#343a40" stroke-width="1"/>
  <line x1="516" y1="234" x2="516" y2="254" stroke="#343a40" stroke-width="1"/>
  <line x1="580" y1="234" x2="580" y2="254" stroke="#343a40" stroke-width="1"/>
  <line x1="634" y1="234" x2="634" y2="254" stroke="#343a40" stroke-width="1"/>
  <line x1="714" y1="234" x2="714" y2="254" stroke="#343a40" stroke-width="1"/>
  <text x="300" y="248" class="colhdr">Kiinteistötunnus</text>
  <text x="394" y="248" class="colhdr">Tyyppi</text>
  <text x="458" y="248" class="colhdr">Kerrosala (m²)</text>
  <text x="520" y="248" class="colhdr">Verotusarvo (€)</text>
  <text x="584" y="248" class="colhdr">Vero (€)</text>
  <text x="638" y="248" class="colhdr">Vero/m² (€)</text>
  <text x="718" y="248" class="colhdr">KV tällä aluehinnalla (€)</text>

  <!-- Row 1 -->
  <rect x="296" y="254" width="572" height="19" fill="white"/>
  <text x="300" y="267" class="cell">091-001-0001-0001</text>
  <text x="394" y="267" class="cell">039</text>
  <text x="450" y="267" class="cell" text-anchor="end">187</text>
  <text x="512" y="267" class="cell" text-anchor="end">142 600,00</text>
  <text x="576" y="267" class="cell" text-anchor="end">641,70</text>
  <text x="630" y="267" class="cell" text-anchor="end">3,4316</text>
  <text x="862" y="267" class="cell" text-anchor="end">857,90</text>

  <!-- Row 2 (alt) — null vero/area → shows – -->
  <rect x="296" y="273" width="572" height="19" fill="#f8f9fa"/>
  <text x="300" y="286" class="cell">091-001-0002-0003</text>
  <text x="394" y="286" class="cell">041</text>
  <text x="450" y="286" class="null" text-anchor="end">–</text>
  <text x="512" y="286" class="null" text-anchor="end">–</text>
  <text x="576" y="286" class="null" text-anchor="end">–</text>
  <text x="630" y="286" class="null" text-anchor="end">–</text>
  <text x="862" y="286" class="null" text-anchor="end">–</text>

  <!-- Row 3 (selected/highlighted) -->
  <rect x="296" y="292" width="572" height="19" fill="#dbeafe"/>
  <text x="300" y="305" class="cell">091-001-0003-0014</text>
  <text x="394" y="305" class="cell">039</text>
  <text x="450" y="305" class="cell" text-anchor="end">210</text>
  <text x="512" y="305" class="cell" text-anchor="end">168 000,00</text>
  <text x="576" y="305" class="cell" text-anchor="end">756,00</text>
  <text x="630" y="305" class="cell" text-anchor="end">3,6000</text>
  <text x="862" y="305" class="cell" text-anchor="end">900,00</text>

  <!-- Row 4 -->
  <rect x="296" y="311" width="572" height="19" fill="white"/>
  <text x="300" y="324" class="cell">091-002-0001-0003</text>
  <text x="394" y="324" class="cell">039</text>
  <text x="450" y="324" class="cell" text-anchor="end">168</text>
  <text x="512" y="324" class="cell" text-anchor="end">128 000,00</text>
  <text x="576" y="324" class="cell" text-anchor="end">576,00</text>
  <text x="630" y="324" class="cell" text-anchor="end">3,4286</text>
  <text x="862" y="324" class="cell" text-anchor="end">857,14</text>

  <!-- Row 5 (alt) -->
  <rect x="296" y="330" width="572" height="19" fill="#f8f9fa"/>
  <text x="300" y="343" class="cell">091-002-0004-0002</text>
  <text x="394" y="343" class="cell">041</text>
  <text x="450" y="343" class="cell" text-anchor="end">295</text>
  <text x="512" y="343" class="cell" text-anchor="end">236 200,00</text>
  <text x="576" y="343" class="cell" text-anchor="end">1 062,90</text>
  <text x="630" y="343" class="cell" text-anchor="end">3,6030</text>
  <text x="862" y="343" class="cell" text-anchor="end">900,75</text>

  <!-- Ellipsis -->
  <rect x="296" y="349" width="572" height="19" fill="white"/>
  <text x="582" y="362" class="small" text-anchor="middle">⋮  (6 lisää riviä)</text>

  <!-- Table border -->
  <rect x="296" y="234" width="572" height="134" fill="none" stroke="#dee2e6" stroke-width="1"/>
  <!-- vertical lines in data rows -->
  <line x1="390" y1="254" x2="390" y2="368" stroke="#dee2e6" stroke-width="1"/>
  <line x1="454" y1="254" x2="454" y2="368" stroke="#dee2e6" stroke-width="1"/>
  <line x1="516" y1="254" x2="516" y2="368" stroke="#dee2e6" stroke-width="1"/>
  <line x1="580" y1="254" x2="580" y2="368" stroke="#dee2e6" stroke-width="1"/>
  <line x1="634" y1="254" x2="634" y2="368" stroke="#dee2e6" stroke-width="1"/>
  <line x1="714" y1="254" x2="714" y2="368" stroke="#dee2e6" stroke-width="1"/>

  <!-- Poista valittu rivi button -->
  <rect x="296" y="376" width="178" height="26" fill="#495057" rx="4"/>
  <text x="385" y="393" class="btn" text-anchor="middle">Poista valittu rivi</text>

  <!-- ── Annotation callouts ── -->

  <!-- 1 — Null row annotation -->
  <line x1="868" y1="282" x2="886" y2="282" stroke="#e57400" stroke-width="1" stroke-dasharray="3,2"/>
  <text x="870" y="277" class="anno" fill="#e57400" font-size="7">Rakennus</text>
  <text x="870" y="287" class="anno" fill="#e57400" font-size="7">ilman vero-</text>
  <text x="870" y="297" class="anno" fill="#e57400" font-size="7">tietoja (–)</text>

  <!-- 2 — Vero/m² column annotation -->
  <line x1="672" y1="228" x2="672" y2="210" stroke="#2563eb" stroke-width="1" stroke-dasharray="3,2"/>
  <text x="634" y="207" class="anno">Pohja arviolle →</text>

  <!-- 3 — Rakennustyyppi list annotation -->
  <text x="2" y="266" class="anno" fill="#e57400" font-size="7">Monivalinta:</text>
  <text x="2" y="276" class="anno" fill="#e57400" font-size="7">valitse yksi tai</text>
  <text x="2" y="286" class="anno" fill="#e57400" font-size="7">useita tyyppejä</text>
  <line x1="14" y1="280" x2="127" y2="280" stroke="#e57400" stroke-width="1" stroke-dasharray="3,2"/>

  <!-- 4 — Poista button annotation -->
  <line x1="385" y1="402" x2="385" y2="422" stroke="#e57400" stroke-width="1" stroke-dasharray="3,2"/>
  <text x="280" y="435" class="anno" fill="#e57400">Poistaa valitun rivin ja synkronoi karttakorostuksen</text>

</svg>
