<svg xmlns="http://www.w3.org/2000/svg" width="540" height="310" font-family="Segoe UI, Arial, sans-serif">
  <!-- Card -->
  <rect width="540" height="310" rx="6" fill="#f9fafb" stroke="#d1d5db" stroke-width="1"/>
  <rect x="0" y="0" width="540" height="36" rx="6" fill="#0a3d7a"/>
  <rect x="0" y="24" width="540" height="12" fill="#0a3d7a"/>
  <text x="16" y="23" fill="white" font-size="12" font-weight="bold">Asetukset → Kiinteistövero prosentit</text>

  <!-- Rows -->
  <!-- Row helper: label left, spinbox right -->
  <!-- 1 -->
  <text x="16" y="65" fill="#374151" font-size="11">Maapohja – yleinen</text>
  <rect x="340" y="50" width="80" height="22" rx="3" fill="white" stroke="#9ca3af" stroke-width="1"/>
  <text x="350" y="65" fill="#111827" font-size="11">1,00</text>
  <text x="425" y="65" fill="#6b7280" font-size="11">%</text>
  <text x="452" y="65" fill="#6b7280" font-size="10">[tax_maapohja_yleinen]</text>

  <!-- 2 -->
  <text x="16" y="97" fill="#374151" font-size="11">Rakennukset – yleinen</text>
  <rect x="340" y="82" width="80" height="22" rx="3" fill="white" stroke="#9ca3af" stroke-width="1"/>
  <text x="350" y="97" fill="#111827" font-size="11">1,00</text>
  <text x="425" y="97" fill="#6b7280" font-size="11">%</text>

  <!-- 3 -->
  <text x="16" y="129" fill="#374151" font-size="11">Vakituinen asunto</text>
  <rect x="340" y="114" width="80" height="22" rx="3" fill="white" stroke="#9ca3af" stroke-width="1"/>
  <text x="350" y="129" fill="#111827" font-size="11">0,45</text>
  <text x="425" y="129" fill="#6b7280" font-size="11">%</text>

  <!-- 4 -->
  <text x="16" y="161" fill="#374151" font-size="11">Muu asuinrakennus</text>
  <rect x="340" y="146" width="80" height="22" rx="3" fill="white" stroke="#9ca3af" stroke-width="1"/>
  <text x="350" y="161" fill="#111827" font-size="11">1,00</text>
  <text x="425" y="161" fill="#6b7280" font-size="11">%</text>

  <!-- 5 -->
  <text x="16" y="193" fill="#374151" font-size="11">Yleishyödyllinen yhteisö</text>
  <rect x="340" y="178" width="80" height="22" rx="3" fill="white" stroke="#9ca3af" stroke-width="1"/>
  <text x="350" y="193" fill="#111827" font-size="11">0,00</text>
  <text x="425" y="193" fill="#6b7280" font-size="11">%</text>

  <!-- 6 -->
  <text x="16" y="225" fill="#374151" font-size="11">Rakentamaton tontti</text>
  <rect x="340" y="210" width="80" height="22" rx="3" fill="white" stroke="#9ca3af" stroke-width="1"/>
  <text x="350" y="225" fill="#111827" font-size="11">3,00</text>
  <text x="425" y="225" fill="#6b7280" font-size="11">%</text>

  <!-- 7 -->
  <text x="16" y="257" fill="#374151" font-size="11">Voimalaitos</text>
  <rect x="340" y="242" width="80" height="22" rx="3" fill="white" stroke="#9ca3af" stroke-width="1"/>
  <text x="350" y="257" fill="#111827" font-size="11">1,00</text>
  <text x="425" y="257" fill="#6b7280" font-size="11">%</text>

  <!-- Save button -->
  <rect x="16" y="276" width="100" height="24" rx="4" fill="#0a3d7a"/>
  <text x="30" y="292" fill="white" font-size="11">Tallenna</text>

  <!-- Note -->
  <text x="130" y="291" fill="#6b7280" font-size="9">Arvot tallennetaan QSettings – voimassa heti kaikissa laskureissa</text>
</svg>
