<?xml version="1.0" encoding="UTF-8" standalone="no"?>
<svg
   viewBox="0 -20 210 210"
   width="200"
   height="200"
   version="1.1"
   id="svg67"
   sodipodi:docname="jätehuollon_rakennukset.svg"
   xml:space="preserve"
   inkscape:version="1.4.3 (0d15f75, 2025-12-25)"
   xmlns:inkscape="http://www.inkscape.org/namespaces/inkscape"
   xmlns:sodipodi="http://sodipodi.sourceforge.net/DTD/sodipodi-0.dtd"
   xmlns:xlink="http://www.w3.org/1999/xlink"
   xmlns="http://www.w3.org/2000/svg"
   xmlns:svg="http://www.w3.org/2000/svg"><sodipodi:namedview
     id="namedview67"
     pagecolor="#ffffff"
     bordercolor="#000000"
     borderopacity="0.25"
     inkscape:showpageshadow="2"
     inkscape:pageopacity="0.0"
     inkscape:pagecheckerboard="0"
     inkscape:deskcolor="#d1d1d1"
     inkscape:zoom="4"
     inkscape:cx="-4.375"
     inkscape:cy="143.125"
     inkscape:window-width="2560"
     inkscape:window-height="1369"
     inkscape:window-x="-8"
     inkscape:window-y="-8"
     inkscape:window-maximized="1"
     inkscape:current-layer="g52" /><!-- Jätehuollon rakennukset - Waste management / Recycling station (Enhanced) --><defs
     id="defs12"><inkscape:path-effect
       effect="fillet_chamfer"
       id="path-effect81"
       is_visible="true"
       lpeversion="1"
       nodesatellites_param="F,0,0,1,0,0,0,1 @ F,0,0,1,0,0,0,1 @ F,0,0,1,0,1.9814911,0,1 @ F,0,0,1,0,0,0,1"
       radius="0"
       unit="px"
       method="auto"
       mode="F"
       chamfer_steps="1"
       flexible="false"
       use_knot_distance="true"
       apply_no_radius="true"
       apply_with_radius="true"
       only_selected="false"
       hide_knots="false" /><inkscape:path-effect
       effect="fillet_chamfer"
       id="path-effect80"
       is_visible="true"
       lpeversion="1"
       nodesatellites_param="F,0,0,1,0,0,0,1 @ F,0,0,1,0,0,0,1 @ F,0,0,1,0,0,0,1 @ F,0,0,1,0,0,0,1 @ F,0,0,1,0,0.67223564,0,1"
       radius="0"
       unit="px"
       method="auto"
       mode="F"
       chamfer_steps="1"
       flexible="false"
       use_knot_distance="true"
       apply_no_radius="true"
       apply_with_radius="true"
       only_selected="false"
       hide_knots="false" /><inkscape:path-effect
       effect="fillet_chamfer"
       id="path-effect79"
       is_visible="true"
       lpeversion="1"
       nodesatellites_param="F,0,0,1,0,0.62519041,0,1 @ F,0,0,1,0,0,0,1 @ F,0,0,1,0,0,0,1 @ F,0,0,1,0,0,0,1 @ F,0,1,1,0,0.62519041,0,1"
       radius="0"
       unit="px"
       method="auto"
       mode="F"
       chamfer_steps="1"
       flexible="false"
       use_knot_distance="true"
       apply_no_radius="true"
       apply_with_radius="true"
       only_selected="false"
       hide_knots="false" /><linearGradient
       id="swatch77"
       inkscape:swatch="solid"><stop
         style="stop-color:#82e0aa;stop-opacity:1;"
         offset="0"
         id="stop77" /></linearGradient><linearGradient
       id="linearGradient73"
       inkscape:collect="always"><stop
         style="stop-color:#8c9b9c;stop-opacity:1;"
         offset="0"
         id="stop74" /><stop
         style="stop-color:#8c9b9c;stop-opacity:0;"
         offset="1"
         id="stop75" /></linearGradient><linearGradient
       id="swatch73"
       inkscape:swatch="solid"><stop
         style="stop-color:#82e0aa;stop-opacity:1;"
         offset="0"
         id="stop73" /></linearGradient><linearGradient
       id="swatch71"><stop
         style="stop-color:#000000;stop-opacity:1;"
         offset="0"
         id="stop71" /></linearGradient><linearGradient
       id="linearGradient69"
       inkscape:collect="always"><stop
         style="stop-color:#dbdbdb;stop-opacity:1;"
         offset="0"
         id="stop69" /><stop
         style="stop-color:#a1a7ac;stop-opacity:1;"
         offset="1"
         id="stop70" /></linearGradient><linearGradient
       id="jWall"
       x1="0"
       y1="0"
       x2="1"
       y2="0"><stop
         offset="0%"
         stop-color="#D5DBDB"
         id="stop1" /><stop
         offset="100%"
         stop-color="#BDC3C7"
         id="stop2" /></linearGradient><linearGradient
       id="jSide"
       x1="0"
       y1="0"
       x2="1"
       y2="0"><stop
         offset="0%"
         stop-color="#95A5A6"
         id="stop3" /><stop
         offset="100%"
         stop-color="#7F8C8D"
         id="stop4" /></linearGradient><linearGradient
       id="jRoof"
       x1="5.0116144"
       y1="172.39954"
       x2="5.0116144"
       y2="208.31611"
       gradientTransform="matrix(3.6403276,0,0,0.27842302,-0.24391702,0)"
       gradientUnits="userSpaceOnUse"><stop
         offset="0%"
         stop-color="#ABB2B9"
         id="stop5" /><stop
         offset="100%"
         stop-color="#909497"
         id="stop6" /></linearGradient><linearGradient
       id="jGlass"
       x1="0"
       y1="0"
       x2="1"
       y2="1"><stop
         offset="0%"
         stop-color="#D6EAF8"
         id="stop7" /><stop
         offset="40%"
         stop-color="#AED6F1"
         id="stop8" /><stop
         offset="100%"
         stop-color="#85C1E9"
         id="stop9" /></linearGradient><linearGradient
       id="jGreen"
       x1="0"
       y1="0"
       x2="0"
       y2="1"><stop
         offset="0%"
         stop-color="#27AE60"
         id="stop10" /><stop
         offset="100%"
         stop-color="#1E8449"
         id="stop11" /></linearGradient><pattern
       id="jCorr"
       width="5"
       height="8"
       patternUnits="userSpaceOnUse"><line
         x1="0"
         y1="0"
         x2="0"
         y2="8"
         stroke="rgba(0,0,0,0.04)"
         stroke-width="1.5"
         id="line11" /><line
         x1="2.5"
         y1="0"
         x2="2.5"
         y2="8"
         stroke="rgba(255,255,255,0.04)"
         stroke-width="1"
         id="line12" /></pattern><filter
       id="jShad"
       x="0"
       y="0"
       width="1"
       height="1"><feDropShadow
         dx="2"
         dy="3"
         stdDeviation="2"
         flood-color="#1B3A5C"
         flood-opacity="0.18" /></filter><linearGradient
       inkscape:collect="always"
       xlink:href="#jGreen"
       id="linearGradient67"
       x1="0"
       y1="0"
       x2="0"
       y2="1"
       gradientUnits="userSpaceOnUse" /><linearGradient
       inkscape:collect="always"
       xlink:href="#jGlass"
       id="linearGradient68"
       x1="49.193496"
       y1="7.8262379"
       x2="58.137767"
       y2="16.77051"
       gradientTransform="scale(1.118034,0.89442719)"
       gradientUnits="userSpaceOnUse" /><pattern
       id="jCorr-1"
       width="5"
       height="8"
       patternUnits="userSpaceOnUse"><line
         x1="0"
         y1="0"
         x2="0"
         y2="8"
         stroke="rgba(0,0,0,0.04)"
         stroke-width="1.5"
         id="line11-7" /><line
         x1="2.5"
         y1="0"
         x2="2.5"
         y2="8"
         stroke="rgba(255,255,255,0.04)"
         stroke-width="1"
         id="line12-1" /></pattern><linearGradient
       inkscape:collect="always"
       xlink:href="#linearGradient69"
       id="linearGradient70"
       x1="24.861183"
       y1="56.298201"
       x2="149.86118"
       y2="56.298201"
       gradientUnits="userSpaceOnUse"
       gradientTransform="matrix(1.1231477,0,0,0.07317096,-9.3078474,41.708014)" /><linearGradient
       inkscape:collect="always"
       xlink:href="#swatch71"
       id="linearGradient72"
       gradientUnits="userSpaceOnUse"
       x1="20"
       y1="105"
       x2="145"
       y2="105" /><radialGradient
       inkscape:collect="always"
       xlink:href="#linearGradient73"
       id="radialGradient75"
       cx="151"
       cy="101.5"
       fx="151"
       fy="101.5"
       r="6"
       gradientTransform="matrix(1,0,0,8.9166667,0,-803.54167)"
       gradientUnits="userSpaceOnUse" /><linearGradient
       inkscape:collect="always"
       xlink:href="#jSide"
       id="linearGradient79"
       x1="144.5"
       y1="101.43653"
       x2="157.5"
       y2="101.43653"
       gradientUnits="userSpaceOnUse" /></defs><!-- Ground shadow --><ellipse
     cx="105"
     cy="162"
     rx="95"
     ry="5"
     fill="#1B3A5C"
     opacity="0.1"
     id="ellipse12" /><!-- 3D side wall --><path
     id="polygon12"
     style="stroke:url(#radialGradient75);fill:url(#linearGradient79);fill-opacity:1"
     d="M 157 48 L 145 55 L 145 154.94336 L 157 149.08984 L 157 48 z " /><!-- Main recycling station building --><g
     filter="url(#jShad)"
     id="g13"><rect
       x="20"
       y="55"
       width="125"
       height="100"
       rx="2"
       fill="url(#jWall)"
       stroke="param(outline) #1B3A5C"
       stroke-width="param(outline-width) 2"
       id="rect13" /></g><rect
     x="20"
     y="55"
     width="125"
     height="100"
     fill="url(#jCorr)"
     opacity="0.3"
     id="rect14"
     style="fill:url(#linearGradient72)" /><path
     id="rect14-5"
     style="fill:url(#linearGradient70);stroke-width:0.286675"
     d="M 32.077571,42.168184 18.615659,48.59119 v 0.895138 H 159.00808 V 42.84042 a 0.67223564,0.67223564 45 0 0 -0.67224,-0.672236 z"
     inkscape:path-effect="#path-effect80"
     inkscape:original-d="M 32.077571,42.168184 18.615659,48.59119 v 0.895138 H 159.00808 v -7.318144 z" /><!-- Roof with 3D side --><rect
     x="18"
     y="48"
     width="130.58713"
     height="10.05794"
     rx="2.027102"
     fill="url(#jRoof)"
     stroke="param(outline) #1B3A5C"
     stroke-width="1.51013"
     id="rect15"
     style="fill:url(#jRoof)"
     ry="2.895726" /><path
     id="polygon15"
     style="fill:#8c9b9c;fill-opacity:1"
     d="M 158.43812,42.403042 147.06641,47.951172 147,48 v 10 l 11.44081,-5.720406 A 1.0115793,1.0115793 121.71747 0 0 159,51.37481 v -8.620714 a 0.39060745,0.39060745 31.996383 0 0 -0.56188,-0.351054 z"
     inkscape:path-effect="#path-effect79"
     inkscape:original-d="M 159,42.128906 147.06641,47.951172 147,48 v 10 l 12,-6 z"
     sodipodi:nodetypes="cccccc" /><!-- Overhang shadow --><line
     x1="20"
     y1="58"
     x2="145"
     y2="58"
     stroke="rgba(0,0,0,0.08)"
     stroke-width="1"
     id="line15" /><!-- Windows --><rect
     x="28"
     y="65"
     width="16"
     height="12"
     rx="1"
     fill="url(#jGlass)"
     stroke="param(outline) #1B3A5C"
     stroke-width="0.8"
     id="rect16" /><line
     x1="36"
     y1="65"
     x2="36"
     y2="77"
     stroke="param(outline) #1B3A5C"
     stroke-width="0.3"
     id="line16" /><rect
     x="27"
     y="77"
     width="18"
     height="2"
     rx="0.5"
     fill="#7F8C8D"
     stroke="param(outline) #1B3A5C"
     stroke-width="0.3"
     id="rect17" /><line
     x1="29"
     y1="67"
     x2="32"
     y2="70"
     stroke="#FFF"
     stroke-width="0.4"
     opacity="0.3"
     id="line17" /><rect
     x="52"
     y="65"
     width="16"
     height="12"
     rx="1"
     fill="url(#jGlass)"
     stroke="param(outline) #1B3A5C"
     stroke-width="0.8"
     id="rect18" /><line
     x1="60"
     y1="65"
     x2="60"
     y2="77"
     stroke="param(outline) #1B3A5C"
     stroke-width="0.3"
     id="line18" /><rect
     x="51"
     y="77"
     width="18"
     height="2"
     rx="0.5"
     fill="#7F8C8D"
     stroke="param(outline) #1B3A5C"
     stroke-width="0.3"
     id="rect19" /><rect
     x="100"
     y="65"
     width="16"
     height="12"
     rx="1"
     fill="url(#jGlass)"
     stroke="param(outline) #1B3A5C"
     stroke-width="0.8"
     id="rect20" /><line
     x1="108"
     y1="65"
     x2="108"
     y2="77"
     stroke="param(outline) #1B3A5C"
     stroke-width="0.3"
     id="line20" /><rect
     x="99"
     y="77"
     width="18"
     height="2"
     rx="0.5"
     fill="#7F8C8D"
     stroke="param(outline) #1B3A5C"
     stroke-width="0.3"
     id="rect21" /><rect
     x="124"
     y="65"
     width="16"
     height="12"
     rx="1"
     fill="url(#jGlass)"
     stroke="param(outline) #1B3A5C"
     stroke-width="0.8"
     id="rect22" /><line
     x1="132"
     y1="65"
     x2="132"
     y2="77"
     stroke="param(outline) #1B3A5C"
     stroke-width="0.3"
     id="line22" /><rect
     x="123"
     y="77"
     width="18"
     height="2"
     rx="0.5"
     fill="#7F8C8D"
     stroke="param(outline) #1B3A5C"
     stroke-width="0.3"
     id="rect23" /><!-- Large loading bay door (left) --><rect
     x="28"
     y="90"
     width="36"
     height="63"
     rx="2"
     fill="#5D6D7E"
     stroke="param(outline) #1B3A5C"
     stroke-width="1.2"
     id="rect24" /><!-- Roller shutter lines --><line
     x1="29"
     y1="96"
     x2="63"
     y2="96"
     stroke="#4D5D6E"
     stroke-width="0.5"
     id="line24" /><line
     x1="29"
     y1="102"
     x2="63"
     y2="102"
     stroke="#4D5D6E"
     stroke-width="0.5"
     id="line25" /><line
     x1="29"
     y1="108"
     x2="63"
     y2="108"
     stroke="#4D5D6E"
     stroke-width="0.5"
     id="line26" /><line
     x1="29"
     y1="114"
     x2="63"
     y2="114"
     stroke="#4D5D6E"
     stroke-width="0.5"
     id="line27" /><line
     x1="29"
     y1="120"
     x2="63"
     y2="120"
     stroke="#4D5D6E"
     stroke-width="0.5"
     id="line28" /><line
     x1="29"
     y1="126"
     x2="63"
     y2="126"
     stroke="#4D5D6E"
     stroke-width="0.5"
     id="line29" /><line
     x1="29"
     y1="132"
     x2="63"
     y2="132"
     stroke="#4D5D6E"
     stroke-width="0.5"
     id="line30" /><line
     x1="29"
     y1="138"
     x2="63"
     y2="138"
     stroke="#4D5D6E"
     stroke-width="0.5"
     id="line31" /><line
     x1="29"
     y1="144"
     x2="63"
     y2="144"
     stroke="#4D5D6E"
     stroke-width="0.5"
     id="line32" /><line
     x1="29"
     y1="150"
     x2="63"
     y2="150"
     stroke="#4D5D6E"
     stroke-width="0.5"
     id="line33" /><!-- Office door (right side) --><rect
     x="108"
     y="120"
     width="24"
     height="33"
     rx="2"
     fill="#34495E"
     stroke="param(outline) #1B3A5C"
     stroke-width="1"
     id="rect33" /><line
     x1="120"
     y1="120"
     x2="120"
     y2="153"
     stroke="param(outline) #1B3A5C"
     stroke-width="0.5"
     id="line34" /><rect
     x="110"
     y="123"
     width="8"
     height="10"
     rx="0.5"
     fill="url(#jGlass)"
     stroke="param(outline) #1B3A5C"
     stroke-width="0.3"
     opacity="0.6"
     id="rect34" /><rect
     x="122"
     y="123"
     width="8"
     height="10"
     rx="0.5"
     fill="url(#jGlass)"
     stroke="param(outline) #1B3A5C"
     stroke-width="0.3"
     opacity="0.6"
     id="rect35" /><circle
     cx="117"
     cy="140"
     r="1.2"
     fill="#F5B041"
     id="circle35" /><circle
     cx="123"
     cy="140"
     r="1.2"
     fill="#F5B041"
     id="circle36" /><!-- Foundation --><path
     x="18"
     y="154.89374"
     width="127.00241"
     height="2.0644226"
     rx="0"
     fill="#95a5a6"
     stroke="param(outline) #1B3A5C"
     stroke-width="0.376235"
     id="rect36"
     ry="0"
     inkscape:path-effect="#path-effect81"
     sodipodi:type="rect"
     d="m 18,154.89374 h 127.00241 v 0.0829 a 1.9814911,1.9814911 135 0 1 -1.98149,1.98149 l -125.02092,0 z" /><!-- ===== Recycling bins (colored containers) ===== --><!-- Green bin (biowaste) --><g
     transform="translate(160,108)"
     id="g38"><rect
       x="0"
       y="0"
       width="16"
       height="22"
       rx="2"
       fill="url(#jGreen)"
       stroke="param(outline) #1B3A5C"
       stroke-width="1"
       id="rect37" /><rect
       x="1"
       y="-2"
       width="14"
       height="3"
       rx="1"
       fill="#1E8449"
       stroke="param(outline) #1B3A5C"
       stroke-width="0.6"
       id="rect38" /><!-- Leaf symbol --><path
       d="M8,8 Q4,4 8,2 Q12,4 8,8"
       fill="#82E0AA"
       stroke="none"
       id="path38" /><line
       x1="8"
       y1="4"
       x2="8"
       y2="8"
       stroke="#196F3D"
       stroke-width="0.5"
       id="line38" /></g><!-- Blue bin (paper) --><g
     transform="translate(180,108)"
     id="g43"><rect
       x="0"
       y="0"
       width="16"
       height="22"
       rx="2"
       fill="#2980B9"
       stroke="param(outline) #1B3A5C"
       stroke-width="1"
       id="rect39" /><rect
       x="1"
       y="-2"
       width="14"
       height="3"
       rx="1"
       fill="#1F618D"
       stroke="param(outline) #1B3A5C"
       stroke-width="0.6"
       id="rect40" /><!-- Paper symbol --><rect
       x="4"
       y="5"
       width="8"
       height="10"
       rx="0.5"
       fill="#AED6F1"
       stroke="none"
       id="rect41" /><line
       x1="5.5"
       y1="8"
       x2="10.5"
       y2="8"
       stroke="#1F618D"
       stroke-width="0.5"
       id="line41" /><line
       x1="5.5"
       y1="10"
       x2="10.5"
       y2="10"
       stroke="#1F618D"
       stroke-width="0.5"
       id="line42" /><line
       x1="5.5"
       y1="12"
       x2="9"
       y2="12"
       stroke="#1F618D"
       stroke-width="0.5"
       id="line43" /></g><!-- Yellow bin (metal/plastic) --><g
     transform="translate(160,134)"
     id="g46"><rect
       x="0"
       y="0"
       width="16"
       height="22"
       rx="2"
       fill="#F1C40F"
       stroke="param(outline) #1B3A5C"
       stroke-width="1"
       id="rect43" /><rect
       x="1"
       y="-2"
       width="14"
       height="3"
       rx="1"
       fill="#D4AC0D"
       stroke="param(outline) #1B3A5C"
       stroke-width="0.6"
       id="rect44" /><!-- Bottle symbol --><rect
       x="6"
       y="4"
       width="4"
       height="10"
       rx="1"
       fill="#F9E79F"
       stroke="#B7950B"
       stroke-width="0.5"
       id="rect45" /><rect
       x="7"
       y="2"
       width="2"
       height="3"
       rx="0.5"
       fill="#F9E79F"
       stroke="#B7950B"
       stroke-width="0.4"
       id="rect46" /></g><!-- Brown bin (glass) --><g
     transform="translate(180,134)"
     id="g49"><rect
       x="0"
       y="0"
       width="16"
       height="22"
       rx="2"
       fill="#6E2C00"
       stroke="param(outline) #1B3A5C"
       stroke-width="1"
       id="rect47" /><rect
       x="1"
       y="-2"
       width="14"
       height="3"
       rx="1"
       fill="#5B2C06"
       stroke="param(outline) #1B3A5C"
       stroke-width="0.6"
       id="rect48" /><!-- Glass symbol --><path
       d="M5,14 L6,5 L10,5 L11,14 Z"
       fill="#D4BFAA"
       stroke="#5B2C06"
       stroke-width="0.5"
       id="path48" /><rect
       x="6.5"
       y="3"
       width="3"
       height="3"
       rx="1"
       fill="none"
       stroke="#D4BFAA"
       stroke-width="0.6"
       id="rect49" /></g><!-- ===== Large recycling symbol on building wall ===== --><g
     transform="translate(87.389889,104.89684)"
     id="g52"><!-- Background circle --><circle
       cx="0"
       cy="0"
       r="22"
       fill="#d5f5e3"
       opacity="0.5"
       id="circle49" /><!-- Three chasing arrows (Möbius loop) - large --><g
       fill="url(#jGreen)"
       stroke="param(outline) #1B3A5C"
       stroke-width="1"
       id="g51"
       style="fill:url(#linearGradient67)"><!-- Arrow 1 (top) --><!-- Arrow 2 (bottom-right) --><!-- Arrow 3 (bottom-left) --></g><g
       fill="#82e0aa"
       stroke="none"
       id="g57-9"
       transform="matrix(1.2425849,0,0,1.3290007,-72.196144,-3.1264944)"><g
         id="g3535-4"
         transform="matrix(0.30775815,0,0,0.28773397,45.659752,-9.134171)"
         style="fill:#24a159;fill-opacity:1"><path
           id="path2742-8"
           style="fill:#24a159;fill-opacity:1;fill-rule:evenodd"
           d="M 54.962,37.281 72.1,27.019 79.778,41.854 c 1.855,8.105 -8.309,11.079 -16.47,10.596 z" /><path
           id="path2743-8"
           style="fill:#24a159;fill-opacity:1;fill-rule:evenodd"
           d="M 51.067,47.877 42.054,63.827 51.067,80 51.29,73.531 h 8.235 c 3.005,0.26 6.899,-1.711 8.346,-4.573 L 78.443,49.55 C 74.956,53.008 70.472,53.9 65.312,53.9 H 51.401 Z" /><path
           id="path2751-2"
           style="fill:#24a159;fill-opacity:1;fill-rule:evenodd"
           d="M 30.928,28.212 13.659,18.175 22.872,4.245 c 6.17,-5.5589 13.698,1.9041 17.237,9.29 z" /><path
           id="path2752-4"
           style="fill:#24a159;fill-opacity:1;fill-rule:evenodd"
           d="M 42.062,26.482 60.35,26.639 70.082,10.89 64.331,13.835 60.334,6.6183 C 59.103,3.859 55.494,1.4023 52.294,1.5241 l -22.06,0.156 c 4.708,1.3773 7.663,4.8732 10.168,9.3959 l 6.752,12.19 z" /><path
           id="path2753-5"
           style="fill:#24a159;fill-opacity:1;fill-rule:evenodd"
           d="m 0.44401,27.381 5.3508,4.101 -5.036,9.464 c -2.5181,4.365 1.8077,8.616 4.5639,10.096 2.7133,1.457 6.9243,1.63 10.859,1.577 l 7.082,-11.357 5.35,2.839 -9.285,-16.878 -18.885,0.158 z" /><path
           id="path2754-5"
           style="fill:#24a159;fill-opacity:1;fill-rule:evenodd"
           d="m 1.2309,49.307 11.488,20.821 c 2.309,2.892 6.663,3.576 11.174,3.471 h 12.118 V 53.881 L 13.0339,53.723 C 9.4668,53.934 4.798,53.198 1.2309,49.307 Z" /></g></g></g><!-- Large waste/recycling truck --><g
     transform="matrix(1.272616,0,0,1.272616,10.449015,126.19366)"
     id="g64"><!-- Truck body (compactor) --><rect
       x="0"
       y="0"
       width="50"
       height="22"
       rx="3"
       fill="#27ae60"
       stroke="param(outline) #1B3A5C"
       stroke-width="1.2"
       id="rect52" /><!-- Body panel lines --><line
       x1="15"
       y1="0"
       x2="15"
       y2="22"
       stroke="#1e8449"
       stroke-width="0.5"
       id="line52" /><line
       x1="35"
       y1="0"
       x2="35"
       y2="22"
       stroke="#1e8449"
       stroke-width="0.5"
       id="line53" /><!-- Cab --><rect
       x="50"
       y="5"
       width="18"
       height="17"
       rx="2"
       fill="#1e8449"
       stroke="param(outline) #1B3A5C"
       stroke-width="1"
       id="rect53" /><!-- Windshield --><rect
       x="55"
       y="7"
       width="10"
       height="8"
       rx="1"
       fill="url(#jGlass)"
       stroke="param(outline) #1B3A5C"
       stroke-width="0.5"
       id="rect54"
       style="fill:url(#linearGradient68)" /><line
       x1="56"
       y1="8"
       x2="58"
       y2="10"
       stroke="#ffffff"
       stroke-width="0.4"
       opacity="0.4"
       id="line54" /><!-- Side mirror --><rect
       x="52"
       y="8"
       width="3"
       height="2"
       rx="0.5"
       fill="#1e8449"
       stroke="param(outline) #1B3A5C"
       stroke-width="0.3"
       id="rect55" /><!-- Recycling logo on truck body --><g
       transform="translate(25,11)"
       id="g58"><circle
         cx="0"
         cy="0"
         r="6"
         fill="none"
         stroke="#82e0aa"
         stroke-width="1.2"
         id="circle55" /><g
         fill="#82e0aa"
         stroke="none"
         id="g57"
         transform="matrix(0.88527033,0,0,0.88527033,-0.2026808,-0.22173737)"><g
           id="g3535"
           transform="matrix(0.11109942,0,0,0.10387077,-4.3059911,-3.8938382)"
           style="fill:#82e0aa;fill-opacity:1"><path
             id="path2742"
             style="fill:#82e0aa;fill-opacity:1;fill-rule:evenodd"
             d="M 54.962,37.281 72.1,27.019 79.778,41.854 c 1.855,8.105 -8.309,11.079 -16.47,10.596 z" /><path
             id="path2743"
             style="fill:#82e0aa;fill-opacity:1;fill-rule:evenodd"
             d="M 51.067,47.877 42.054,63.827 51.067,80 51.29,73.531 h 8.235 c 3.005,0.26 6.899,-1.711 8.346,-4.573 L 78.443,49.55 C 74.956,53.008 70.472,53.9 65.312,53.9 H 51.401 Z" /><path
             id="path2751"
             style="fill:#82e0aa;fill-opacity:1;fill-rule:evenodd"
             d="M 30.928,28.212 13.659,18.175 22.872,4.245 c 6.17,-5.5589 13.698,1.9041 17.237,9.29 z" /><path
             id="path2752"
             style="fill:#82e0aa;fill-opacity:1;fill-rule:evenodd"
             d="M 42.062,26.482 60.35,26.639 70.082,10.89 64.331,13.835 60.334,6.6183 C 59.103,3.859 55.494,1.4023 52.294,1.5241 l -22.06,0.156 c 4.708,1.3773 7.663,4.8732 10.168,9.3959 l 6.752,12.19 z" /><path
             id="path2753"
             style="fill:#82e0aa;fill-opacity:1;fill-rule:evenodd"
             d="m 0.44401,27.381 5.3508,4.101 -5.036,9.464 c -2.5181,4.365 1.8077,8.616 4.5639,10.096 2.7133,1.457 6.9243,1.63 10.859,1.577 l 7.082,-11.357 5.35,2.839 -9.285,-16.878 -18.885,0.158 z" /><path
             id="path2754"
             style="fill:#82e0aa;fill-opacity:1;fill-rule:evenodd"
             d="m 1.2309,49.307 11.488,20.821 c 2.309,2.892 6.663,3.576 11.174,3.471 h 12.118 V 53.881 L 13.0339,53.723 C 9.4668,53.934 4.798,53.198 1.2309,49.307 Z" /></g></g></g><!-- Front bumper --><rect
       x="66"
       y="18"
       width="4"
       height="4"
       rx="0.5"
       fill="#2c3e50"
       stroke="param(outline) #1B3A5C"
       stroke-width="0.3"
       id="rect58" /><!-- Headlight --><rect
       x="67"
       y="9"
       width="2"
       height="3"
       rx="0.5"
       fill="#f1c40f"
       stroke="param(outline) #1B3A5C"
       stroke-width="0.3"
       id="rect59" /><!-- Wheels (larger) --><circle
       cx="10"
       cy="23"
       r="5"
       fill="#2c3e50"
       stroke="param(outline) #1B3A5C"
       stroke-width="0.8"
       id="circle59" /><circle
       cx="10"
       cy="23"
       r="2"
       fill="#7f8c8d"
       id="circle60" /><circle
       cx="38"
       cy="23"
       r="5"
       fill="#2c3e50"
       stroke="param(outline) #1B3A5C"
       stroke-width="0.8"
       id="circle61" /><circle
       cx="38"
       cy="23"
       r="2"
       fill="#7f8c8d"
       id="circle62" /><circle
       cx="58"
       cy="23"
       r="5"
       fill="#2c3e50"
       stroke="param(outline) #1B3A5C"
       stroke-width="0.8"
       id="circle63" /><circle
       cx="58"
       cy="23"
       r="2"
       fill="#7f8c8d"
       id="circle64" /></g><!-- "Green" accent: small tree/shrub next to building --></svg>
